<?xml version="1.0" encoding="utf-8"?>
<!-- Svg Vector Icons : http://www.onlinewebfonts.com/icon -->
<!DOCTYPE svg PUBLIC "-//W3C//DTD SVG 1.1//EN" "http://www.w3.org/Graphics/SVG/1.1/DTD/svg11.dtd">
<svg version="1.1" xmlns="http://www.w3.org/2000/svg" xmlns:xlink="http://www.w3.org/1999/xlink" x="0px" y="0px" viewBox="0 0 1000 1000" enable-background="new 0 0 1000 1000" xml:space="preserve">
<metadata> Svg Vector Icons : http://www.onlinewebfonts.com/icon </metadata>
<g><g transform="translate(0.000000,511.000000) scale(0.100000,-0.100000)"><path d="M3616.3,4839c-398.4-112.7-890.7-1022.2-1093.6-2021.8c-146.6-714-82.7-1048.5,259.3-1394.3c165.4-165.4,263.1-229.2,417.2-274.3c447.2-131.5,811.8-45.1,1127.4,270.6c349.5,349.5,394.6,590,278.1,1480.7c-78.9,608.8-248,1270.2-398.4,1567.1C4033.5,4805.2,3868.1,4910.4,3616.3,4839z"/><path d="M6104.1,4846.5c-285.6-116.5-567.5-909.5-706.5-1965.5c-112.8-868.1-63.9-1112.4,281.9-1461.9c161.6-161.6,259.3-225.5,413.4-270.6c447.2-131.5,811.8-45.1,1127.4,270.6c349.5,349.5,409.6,676.5,263.1,1398c-180.4,879.4-593.8,1732.5-947.1,1946.7C6382.3,4857.8,6213.1,4891.6,6104.1,4846.5z"/><path d="M887.9,2704.4c-105.2-41.3-338.2-300.6-424.7-477.3c-300.6-590-466-2010.6-293.1-2517.9c86.4-263.1,342-541.2,593.8-653.9c420.9-187.9,980.8-75.2,1266.5,251.8c323.2,364.6,372.1,699,195.4,1326.6c-251.8,909.5-575,1623.5-860.6,1920.4C1177.3,2745.8,1072.1,2779.6,887.9,2704.4z"/><path d="M8674.7,2595.4c-285.6-266.8-635.1-1026-894.4-1961.7c-93.9-334.5-112.7-469.8-101.5-650.1c33.8-402.1,263.1-736.6,623.8-913.2c443.4-218,984.6-105.2,1319.1,274.3c225.5,255.5,281.9,469.8,278.1,1029.7c-7.5,1270.2-402.1,2288.7-905.7,2356.3C8858.8,2749.5,8828.8,2738.2,8674.7,2595.4z"/><path d="M4758.8,675.1C4507,633.7,4274,547.3,4063.5,412c-233-150.3-676.5-612.5-1022.2-1071c-323.2-424.7-477.3-578.8-932-928.3c-462.2-357-770.4-691.5-909.5-995.9c-105.2-218-124-308.2-135.3-620.1c-18.8-454.7,52.6-710.3,266.8-954.6C1726-4605,2297.2-4702.8,3958.3-4605c962.1,56.4,1116.2,56.4,2104.5,0c582.5-33.8,1191.3-48.8,1345.4-37.6c804.2,71.4,1221.4,289.4,1435.6,751.6c75.2,161.6,86.4,248,86.4,620.1c0,409.6-7.5,447.2-120.3,687.7c-142.8,300.6-458.5,646.4-894.4,977.1c-454.7,349.5-635.1,529.9-999.6,1007.2c-428.4,560-853.1,965.8-1165,1116.1c-206.7,97.7-638.9,206.7-766.7,191.7C4965.4,705.1,4864,690.1,4758.8,675.1z"/></g></g>
</svg>